<?xml version="1.0" standalone="no"?>
<!DOCTYPE svg PUBLIC "-//W3C//DTD SVG 20010904//EN"
 "http://www.w3.org/TR/2001/REC-SVG-20010904/DTD/svg10.dtd">
<svg version="1.0" xmlns="http://www.w3.org/2000/svg"
 width="300.000000pt" height="298.000000pt" viewBox="0 0 300.000000 298.000000"
 preserveAspectRatio="xMidYMid meet">
<metadata>
Created by potrace 1.10, written by Peter Selinger 2001-2011
</metadata>
<g transform="translate(0.000000,298.000000) scale(0.100000,-0.100000)"
fill="#000000" stroke="none">
<path d="M1388 2859 l-3 -121 -57 -18 c-114 -35 -208 -115 -257 -219 -23 -50
-26 -68 -26 -166 0 -100 2 -115 27 -161 55 -104 154 -179 343 -260 131 -56
169 -79 216 -131 68 -75 75 -164 19 -241 -80 -110 -291 -122 -479 -27 -38 19
-73 40 -77 46 -4 7 -24 -36 -46 -97 -44 -125 -48 -116 60 -165 70 -33 169 -59
225 -59 l37 0 0 -120 0 -120 105 0 105 0 0 123 0 122 61 19 c208 65 335 267
299 474 -31 181 -121 272 -387 391 -73 33 -153 74 -178 92 -162 117 -70 320
144 319 72 0 173 -25 241 -60 34 -17 63 -30 65 -28 1 2 19 47 39 102 35 93 36
99 19 112 -31 23 -125 56 -210 72 l-83 16 0 113 c0 94 -3 113 -15 113 -12 0
-15 -19 -15 -113 0 -134 5 -142 95 -157 60 -10 168 -43 195 -60 15 -9 12 -24
-31 -137 l-8 -22 -53 24 c-121 56 -290 70 -368 30 -84 -42 -120 -97 -120 -183
0 -48 5 -67 28 -101 34 -51 102 -101 180 -132 264 -107 393 -212 423 -343 18
-80 7 -230 -21 -290 -41 -90 -140 -170 -255 -206 -71 -22 -75 -30 -75 -152 l0
-108 -75 0 -75 0 0 103 c0 123 -5 131 -93 141 -71 8 -203 50 -237 76 l-25 19
24 70 c13 39 29 71 35 71 6 0 37 -14 68 -30 108 -57 283 -78 379 -45 99 34
159 116 159 219 0 126 -84 208 -302 295 -150 59 -264 145 -309 232 -18 34 -24
65 -27 139 -5 110 15 177 70 244 41 50 132 109 195 126 76 22 82 36 83 173 0
96 -3 117 -15 117 -12 0 -15 -23 -17 -121z"/>
<path d="M0 1108 c0 -16 15 -18 170 -18 l170 0 0 -353 c0 -342 1 -354 20 -375
l21 -22 1124 0 1124 0 15 22 c14 19 16 72 16 375 l0 353 170 0 c144 0 170 2
170 15 0 13 -27 15 -185 15 l-185 0 0 -375 0 -375 -1127 2 -1128 3 -2 373 -2
373 -186 2 c-170 2 -185 1 -185 -15z"/>
</g>
</svg>
