<?xml version="1.0" standalone="no"?>
<!DOCTYPE svg PUBLIC "-//W3C//DTD SVG 20010904//EN"
 "http://www.w3.org/TR/2001/REC-SVG-20010904/DTD/svg10.dtd">
<svg version="1.0" xmlns="http://www.w3.org/2000/svg"
 width="2133.000000pt" height="2116.000000pt" viewBox="0 0 2133.000000 2116.000000"
 preserveAspectRatio="xMidYMid meet">
<metadata>
Created by potrace 1.16, written by Peter Selinger 2001-2019
</metadata>
<g transform="translate(0.000000,2116.000000) scale(0.100000,-0.100000)"
fill="#000000" stroke="none">
<path d="M9860 20310 c0 -672 -3 -851 -12 -855 -7 -2 -85 -24 -173 -50 -366
-107 -530 -167 -737 -270 -656 -325 -1148 -854 -1403 -1507 -235 -602 -247
-1383 -30 -1964 320 -855 1089 -1489 2510 -2069 514 -209 708 -299 945 -434
276 -159 442 -283 616 -464 162 -167 251 -302 321 -487 74 -195 102 -472 68
-685 -59 -377 -256 -682 -580 -897 -478 -318 -1105 -400 -1913 -253 -581 107
-1085 311 -1586 643 -87 57 -165 105 -173 106 -11 1 -89 -205 -284 -749 -148
-412 -269 -754 -269 -760 0 -5 49 -44 108 -86 491 -348 1178 -603 1937 -719
134 -20 476 -60 523 -60 l22 0 0 -839 0 -839 65 -7 c77 -9 1323 2 1378 11 l37
6 0 873 0 872 148 37 c743 189 1351 551 1784 1063 476 563 717 1263 695 2018
-9 299 -47 543 -128 825 -233 813 -815 1438 -1839 1978 -171 90 -345 170 -795
367 -773 338 -958 429 -1193 584 -393 260 -581 491 -664 816 -20 79 -23 114
-22 275 0 166 3 195 26 282 135 500 537 820 1148 915 144 22 624 25 795 5 598
-71 1044 -221 1608 -542 98 -56 180 -100 181 -98 2 1 130 338 285 748 268 709
281 745 264 761 -30 28 -279 168 -428 239 -361 173 -781 307 -1175 374 -123
21 -549 76 -588 76 -9 0 -12 174 -12 805 l0 805 -730 0 -730 0 0 -850z"/>
<path d="M0 4006 l0 -4006 10665 0 10665 0 0 3994 c0 3633 -1 3994 -16 4000
-21 8 -2224 8 -2452 -1 l-182 -6 0 -2647 c0 -2045 -3 -2649 -12 -2658 -16 -16
-15939 -18 -15969 -2 -19 11 -19 51 -19 2665 l0 2655 -1272 0 c-700 0 -1303 3
-1340 7 l-68 6 0 -4007z"/>
</g>
</svg>
